<svg width="86" height="27" viewBox="0 0 86 27" fill="none" xmlns="http://www.w3.org/2000/svg">
<path d="M40.624 23.904C39.072 23.904 37.64 23.56 36.328 22.872C35.032 22.2 34 21.224 33.232 19.944C32.464 18.648 32.08 17.12 32.08 15.36V12C32.08 10.256 32.464 8.736 33.232 7.44C34 6.144 35.032 5.16 36.328 4.488C37.64 3.8 39.072 3.456 40.624 3.456C42.768 3.456 44.552 4 45.976 5.088C47.4 6.176 48.352 7.736 48.832 9.768L45.256 10.8C44.936 9.472 44.408 8.504 43.672 7.896C42.936 7.272 41.92 6.96 40.624 6.96C39.744 6.96 38.936 7.16 38.2 7.56C37.48 7.944 36.904 8.528 36.472 9.312C36.056 10.096 35.848 11.04 35.848 12.144V15.216C35.848 16.32 36.056 17.264 36.472 18.048C36.904 18.832 37.48 19.424 38.2 19.824C38.936 20.208 39.744 20.4 40.624 20.4C41.696 20.4 42.568 20.192 43.24 19.776C43.912 19.36 44.384 18.848 44.656 18.24C44.944 17.616 45.088 16.992 45.088 16.368V16.296H40.864V13.032H48.832V15.864C48.832 17.64 48.456 19.136 47.704 20.352C46.952 21.552 45.952 22.44 44.704 23.016C43.456 23.608 42.096 23.904 40.624 23.904ZM58.7249 3.816C60.4369 3.816 61.9729 4.16 63.3329 4.848C64.6929 5.52 65.7569 6.512 66.5249 7.824C67.3089 9.136 67.7009 10.696 67.7009 12.504V14.856C67.7009 16.664 67.3089 18.224 66.5249 19.536C65.7569 20.848 64.6929 21.84 63.3329 22.512C61.9729 23.2 60.4369 23.544 58.7249 23.544H51.4769V3.816H58.7249ZM63.9329 12.624C63.9329 10.848 63.4529 9.512 62.4929 8.616C61.5489 7.704 60.2929 7.248 58.7249 7.248H55.2449V20.112H58.7249C60.3089 20.112 61.5729 19.664 62.5169 18.768C63.4609 17.872 63.9329 16.528 63.9329 14.736V12.624ZM72.0805 17.112C72.5605 18.168 73.2325 19 74.0965 19.608C74.9765 20.2 76.0005 20.496 77.1685 20.496C78.3525 20.496 79.2565 20.296 79.8805 19.896C80.5205 19.496 80.8405 18.928 80.8405 18.192C80.8405 17.536 80.6485 17.016 80.2645 16.632C79.8965 16.248 79.2645 15.936 78.3685 15.696L75.5125 14.928C71.8645 13.952 70.0405 12.048 70.0405 9.216C70.0405 8.048 70.3445 7.032 70.9525 6.168C71.5605 5.288 72.3925 4.616 73.4485 4.152C74.5045 3.688 75.6885 3.456 77.0005 3.456C78.7925 3.456 80.3445 3.912 81.6565 4.824C82.9685 5.72 83.9125 6.848 84.4885 8.208L81.3685 9.792C80.9205 8.928 80.3285 8.224 79.5925 7.68C78.8565 7.136 77.9925 6.864 77.0005 6.864C75.9445 6.864 75.1365 7.072 74.5765 7.488C74.0325 7.904 73.7605 8.48 73.7605 9.216C73.7605 9.872 73.9765 10.376 74.4085 10.728C74.8565 11.08 75.5125 11.368 76.3765 11.592L79.1125 12.312C80.6805 12.728 81.9765 13.4 83.0005 14.328C84.0405 15.256 84.5605 16.544 84.5605 18.192C84.5605 19.36 84.2325 20.376 83.5765 21.24C82.9365 22.104 82.0565 22.76 80.9365 23.208C79.8165 23.672 78.5605 23.904 77.1685 23.904C75.1845 23.904 73.4805 23.448 72.0565 22.536C70.6325 21.624 69.5845 20.344 68.9125 18.696L72.0805 17.112Z" fill="black"/>
<g clip-path="url(#clip0_213_1815)">
<path d="M13.5877 18.2836L10.6318 18.2669L10.691 7.47949L13.6468 7.49618L13.5877 18.2836Z" fill="#508AA4"/>
<path d="M18.4488 3.26052C17.5361 2.71102 16.5435 2.28309 15.493 2V13.9979H18.4488V6.97174C20.1402 8.57614 21.1978 10.8516 21.1978 13.3721C21.1978 18.2192 17.286 22.1629 12.4779 22.1629C11.9743 22.1629 11.4806 22.1188 11 22.036V25.0475C11.4842 25.1095 11.9772 25.1429 12.4779 25.1429C18.9159 25.1429 24.1537 19.8624 24.1537 13.3721C24.1537 9.07976 21.8623 5.31728 18.4488 3.26052Z" fill="#365C7C"/>
<path d="M11.9756 1.57129C5.53764 1.57129 0.299805 6.85175 0.299805 13.3421C0.299805 17.6344 2.59121 21.3969 6.00467 23.4536C6.91745 24.0031 7.91004 24.431 8.96056 24.7141V12.6567H6.00467V19.7424C4.31331 18.138 3.25569 15.8625 3.25569 13.3421C3.25569 8.4949 7.16752 4.55123 11.9756 4.55123C12.4792 4.55123 12.9729 4.59534 13.4535 4.67818V1.66665C12.9693 1.60466 12.4763 1.57129 11.9756 1.57129Z" fill="#8FCBE9"/>
</g>
<defs>
<clipPath id="clip0_213_1815">
<rect width="25" height="25" fill="white" transform="translate(0 1)"/>
</clipPath>
</defs>
</svg>
